HIERARCHY
ROOT hip
{
  OFFSET 0 0 0
  CHANNELS 6 Xposition Yposition Zposition Zrotation Yrotation Xrotation
  JOINT abdomen
  {
    OFFSET 0 20.6881 -0.73152
    CHANNELS 3 Zrotation Xrotation Yrotation
    JOINT chest
    {
      OFFSET 0 11.7043 -0.48768
      CHANNELS 3 Zrotation Xrotation Yrotation
      JOINT neck
      {
        OFFSET 0 22.1894 -2.19456
        CHANNELS 3 Zrotation Xrotation Yrotation
        JOINT head
        {
          OFFSET -0.24384 7.07133 1.2192
          CHANNELS 3 Zrotation Xrotation Yrotation
          JOINT leftEye
          {
            OFFSET 4.14528 8.04674 8.04672
            CHANNELS 3 Zrotation Xrotation Yrotation
            End Site
            {
              OFFSET 1 0 0
            }
          }
          JOINT rightEye
          {
            OFFSET -3.6576 8.04674 8.04672
            CHANNELS 3 Zrotation Xrotation Yrotation
            End Site
            {
              OFFSET 1 0 0
            }
          }
        }
      }
      JOINT rCollar
      {
        OFFSET -2.68224 19.2634 -4.8768
        CHANNELS 3 Zrotation Xrotation Yrotation
        JOINT rShldr
        {
          OFFSET -8.77824 -1.95073 1.46304
          CHANNELS 3 Zrotation Xrotation Yrotation
          JOINT rForeArm
          {
            OFFSET -28.1742 -1.7115 0.48768
            CHANNELS 3 Zrotation Xrotation Yrotation
            JOINT rHand
            {
              OFFSET -22.5879 0.773209 7.07136
              CHANNELS 3 Zrotation Xrotation Yrotation
              JOINT rThumb1
              {
                OFFSET -1.2192 -0.487915 3.41376
                CHANNELS 3 Zrotation Xrotation Yrotation
                JOINT rThumb2
                {
                  OFFSET -3.37035 -0.52449 3.41376
                  CHANNELS 3 Zrotation Xrotation Yrotation
                  End Site
                  {
                    OFFSET -1.78271 -1.18214 1.43049
                  }
                }
              }
              JOINT rIndex1
              {
                OFFSET -7.75947 0.938293 5.60832
                CHANNELS 3 Zrotation Xrotation Yrotation
                JOINT rIndex2
                {
                  OFFSET -2.54057 -0.884171 1.56538
                  CHANNELS 3 Zrotation Xrotation Yrotation
                  End Site
                  {
                    OFFSET -1.62519 -0.234802 1.16502
                  }
                }
              }
              JOINT rMid1
              {
                OFFSET -8.24714 1.18213 3.41376
                CHANNELS 3 Zrotation Xrotation Yrotation
                JOINT rMid2
                {
                  OFFSET -3.10165 -0.590103 1.0647
                  CHANNELS 3 Zrotation Xrotation Yrotation
                  End Site
                  {
                    OFFSET -2.48547 -0.328903 0.83742
                  }
                }
              }
              JOINT rRing1
              {
                OFFSET -8.82822 0.546677 1.51678
                CHANNELS 3 Zrotation Xrotation Yrotation
                JOINT rRing2
                {
                  OFFSET -2.60934 -0.819778 -0.0198488
                  CHANNELS 3 Zrotation Xrotation Yrotation
                  End Site
                  {
                    OFFSET -2.33842 -0.294052 0.168128
                  }
                }
              }
              JOINT rPinky1
              {
                OFFSET -8.27202 -0.0477905 -0.4584
                CHANNELS 3 Zrotation Xrotation Yrotation
                JOINT rPinky2
                {
                  OFFSET -1.82734 -0.647385 -0.700984
                  CHANNELS 3 Zrotation Xrotation Yrotation
                  End Site
                  {
                    OFFSET -1.69225 -0.51767 -0.607171
                  }
                }
              }
            }
          }
        }
      }
      JOINT lCollar
      {
        OFFSET 2.68224 19.2634 -4.8768
        CHANNELS 3 Zrotation Xrotation Yrotation
        JOINT lShldr
        {
          OFFSET 8.77824 -1.95073 1.46304
          CHANNELS 3 Zrotation Xrotation Yrotation
          JOINT lForeArm
          {
            OFFSET 28.1742 -1.7115 0.48768
            CHANNELS 3 Zrotation Xrotation Yrotation
            JOINT lHand
            {
              OFFSET 22.5879 0.773209 7.07136
              CHANNELS 3 Zrotation Xrotation Yrotation
              JOINT lThumb1
              {
                OFFSET 1.2192 -0.487915 3.41376
                CHANNELS 3 Zrotation Xrotation Yrotation
                JOINT lThumb2
                {
                  OFFSET 3.37035 -0.52449 3.41376
                  CHANNELS 3 Zrotation Xrotation Yrotation
                  End Site
                  {
                    OFFSET 1.78271 -1.18214 1.43049
                  }
                }
              }
              JOINT lIndex1
              {
                OFFSET 7.75947 0.938293 5.60832
                CHANNELS 3 Zrotation Xrotation Yrotation
                JOINT lIndex2
                {
                  OFFSET 2.54057 -0.884171 1.56538
                  CHANNELS 3 Zrotation Xrotation Yrotation
                  End Site
                  {
                    OFFSET 1.62519 -0.234802 1.16502
                  }
                }
              }
              JOINT lMid1
              {
                OFFSET 8.24714 1.18213 3.41376
                CHANNELS 3 Zrotation Xrotation Yrotation
                JOINT lMid2
                {
                  OFFSET 3.10165 -0.590103 1.0647
                  CHANNELS 3 Zrotation Xrotation Yrotation
                  End Site
                  {
                    OFFSET 2.48547 -0.328903 0.83742
                  }
                }
              }
              JOINT lRing1
              {
                OFFSET 8.82822 0.546677 1.51678
                CHANNELS 3 Zrotation Xrotation Yrotation
                JOINT lRing2
                {
                  OFFSET 2.60934 -0.819778 -0.0198488
                  CHANNELS 3 Zrotation Xrotation Yrotation
                  End Site
                  {
                    OFFSET 2.33842 -0.294052 0.168128
                  }
                }
              }
              JOINT lPinky1
              {
                OFFSET 8.27202 -0.0477905 -0.4584
                CHANNELS 3 Zrotation Xrotation Yrotation
                JOINT lPinky2
                {
                  OFFSET 1.82734 -0.647385 -0.700984
                  CHANNELS 3 Zrotation Xrotation Yrotation
                  End Site
                  {
                    OFFSET 1.69225 -0.51767 -0.607171
                  }
                }
              }
            }
          }
        }
      }
    }
  }
  JOINT rButtock
  {
    OFFSET -8.77824 4.35084 1.2192
    CHANNELS 3 Zrotation Xrotation Yrotation
    JOINT rThigh
    {
      OFFSET 0 -1.70687 -2.19456
      CHANNELS 3 Zrotation Xrotation Yrotation
      JOINT rShin
      {
        OFFSET 0 -36.8199 0.73152
        CHANNELS 3 Zrotation Xrotation Yrotation
        JOINT rFoot
        {
          OFFSET 0.73152 -45.1104 -5.12064
          CHANNELS 3 Zrotation Xrotation Yrotation
          End Site
          {
            OFFSET -1.1221 -3.69964 12.103
          }
        }
      }
    }
  }
  JOINT lButtock
  {
    OFFSET 8.77824 4.35084 1.2192
    CHANNELS 3 Zrotation Xrotation Yrotation
    JOINT lThigh
    {
      OFFSET 0 -1.70687 -2.19456
      CHANNELS 3 Zrotation Xrotation Yrotation
      JOINT lShin
      {
        OFFSET 0 -36.8199 0.73152
        CHANNELS 3 Zrotation Xrotation Yrotation
        JOINT lFoot
        {
          OFFSET -0.73152 -45.1104 -5.12064
          CHANNELS 3 Zrotation Xrotation Yrotation
          End Site
          {
            OFFSET 1.1221 -3.69964 12.103
          }
        }
      }
    }
  }
}
MOTION
Frames:	4
Frame Time:	0.03333
-0.06665727123618126 61.892205476760864 0.09238850325345993 -4.4047017097473145 2.818662643432617 5.017364025115967 -2.2268667221069336 14.654472351074219 3.71687388420105 2.6903305053710938 -9.689372062683105 1.057946801185608 -5.156463146209717 15.066512107849121 -3.5858047008514404 8.886801719665527 -24.218122482299805 -5.128666400909424 -0.08609240502119064 -0.12855173647403717 0.023909863084554672 0.059650879353284836 0.03511128947138786 0.026768937706947327 -0.05968809127807617 -0.12461251020431519 -0.0017094702925533056 45.23579025268555 37.36759567260742 19.12944793701172 -27.690872192382812 -28.664831161499023 65.09135437011719 -0.2297602742910385 -12.34106731414795 -1.8118038177490234 -0.0771661028265953 0.0025511577259749174 -0.12688936293125153 -0.1119258776307106 -0.03398389369249344 0.03526231646537781 0.0050111813470721245 0.09581749886274338 -0.0184374637901783 7.778738021850586 5.482051372528076 0.46989917755126953 0.022489331662654877 -0.057444341480731964 -0.03319041058421135 2.959763288497925 0.9642394185066223 0.0590425468981266 -0.01528523862361908 -0.0022171807941049337 0.014505354687571526 10.384077072143555 0.7824662327766418 0.006936054676771164 -0.017515191808342934 0.11610423028469086 -0.08540907502174377 2.2576189041137695 -0.8076918721199036 -0.15979263186454773 -0.018082018941640854 -0.02602667175233364 -0.036863893270492554 -52.653656005859375 39.90796661376953 -29.377788543701172 27.015825271606445 -26.31089973449707 -61.54082107543945 0.10266667604446411 -13.584863662719727 1.9588539600372314 0.06055723503232002 0.008183796890079975 -0.002833245089277625 -0.05983816459774971 0.017103612422943115 0.028822723776102066 0.011311262845993042 -0.108293816447258 -0.031178338453173637 -7.834576606750488 5.367919445037842 -0.4739187955856323 0.007787296548485756 0.03655199706554413 -0.020526772364974022 -2.9507458209991455 1.0329339504241943 -0.07146749645471573 0.053176116198301315 0.039686862379312515 -0.052292875945568085 -10.345309257507324 0.7314297556877136 0.04603540524840355 -0.05679650977253914 -0.012443658895790577 -0.04092251881957054 -2.128951072692871 -0.7962791323661804 0.2612478733062744 0.02688160538673401 -0.07026857882738113 0.05846705660223961 -25.344890594482422 -39.90678024291992 -20.79965591430664 -1.561578631401062 65.20061492919922 2.629117250442505 -3.5592753887176514 -10.948973655700684 -9.951253890991211 -0.03627794235944748 -0.14700327813625336 0.061074934899806976 30.757705688476562 -39.76180648803711 23.481416702270508 1.5819408893585205 66.129638671875 -2.7321619987487793 4.161281585693359 -11.088788032531738 13.426015853881836
-0.16871467232704163 61.676156520843506 0.1390164252370596 -4.265739917755127 3.1896538734436035 4.939541339874268 -2.1633875370025635 14.521734237670898 3.6078178882598877 2.7655246257781982 -9.67747974395752 0.9966177940368652 -5.089197635650635 15.102218627929688 -3.695970058441162 9.001118659973145 -24.138280868530273 -5.1727070808410645 -0.00558003643527627 -0.21967419981956482 0.07045095413923264 0.06059250608086586 0.003777829697355628 -0.05256012827157974 -0.1070360466837883 -0.19431349635124207 -0.045568522065877914 45.170494079589844 36.9688606262207 19.15730857849121 -27.59966278076172 -28.465116500854492 64.9408187866211 -0.27030810713768005 -12.371206283569336 -1.7983133792877197 -0.17846381664276123 -0.07850425690412521 -0.15628273785114288 -0.16496796905994415 -0.07011616230010986 0.09743020683526993 0.047301143407821655 0.11436355859041214 -0.05340760201215744 7.814084529876709 5.460979461669922 0.5584558844566345 -0.054563283920288086 -0.12112275511026382 -0.034835126250982285 2.9746875762939453 0.9666787385940552 0.032488010823726654 -0.06515513360500336 0.04505350440740585 0.06361133605241776 10.439902305603027 0.8320561647415161 0.07609686255455017 -0.026721058413386345 0.04258962720632553 -0.10998659580945969 2.2627944946289062 -0.776103675365448 -0.09888404607772827 0.01552940160036087 -0.14945417642593384 0.014502295292913914 -52.66826629638672 40.167266845703125 -29.635807037353516 27.170621871948242 -26.08167266845703 -61.16515350341797 0.09235331416130066 -13.630382537841797 1.7245163917541504 0.009335245005786419 0.021185902878642082 0.06576410681009293 -0.04089090973138809 0.041598476469516754 0.04735907167196274 0.08448701351881027 -0.07802160829305649 -0.05486757680773735 -7.844420433044434 5.319331169128418 -0.4965955317020416 -0.057181987911462784 0.031847793608903885 -0.03515017405152321 -2.856999635696411 0.9782945513725281 -0.062393248081207275 0.061191994696855545 -0.00036286981776356697 -0.09684929996728897 -10.392853736877441 0.7710815072059631 0.14788930118083954 -0.03522799164056778 -0.08207481354475021 -0.044228579849004745 -2.1271326541900635 -0.7713069915771484 0.3752557039260864 0.030107639729976654 -0.16049641370773315 0.08199774473905563 -25.461456298828125 -39.91122055053711 -20.556896209716797 -1.7430943250656128 64.755126953125 2.7539761066436768 -3.5286052227020264 -11.15821647644043 -10.11054515838623 -0.11513247340917587 -0.13531720638275146 0.030702322721481323 30.959333419799805 -39.77659606933594 23.493572235107422 1.5673094987869263 66.37620544433594 -2.6421098709106445 4.024138450622559 -11.354758262634277 13.427291870117188
-0.36735842004418373 62.45659589767456 1.138604013249278 -17.918359756469727 63.67890930175781 -26.58898162841797 4.293297290802002 22.632755279541016 9.081887245178223 -1.208611249923706 -10.897074699401855 2.4523420333862305 -2.3725342750549316 13.932941436767578 5.799190521240234 4.393504619598389 -22.166963577270508 10.274489402770996 -0.22782151401042938 -0.40489107370376587 0.6032232046127319 0.31123706698417664 0.10778459161520004 0.07824760675430298 -0.15537068247795105 -0.11094500124454498 -0.41462022066116333 34.001346588134766 45.80108642578125 23.494722366333008 -27.920352935791016 -41.36947250366211 86.85803985595703 -0.6343481540679932 -11.5974702835083 -2.046602249145508 -0.5495489835739136 -0.7151136994361877 -0.33524879813194275 0.0015661264769732952 -0.05082212761044502 -0.3673451244831085 -0.13739113509655 0.08145236223936081 0.3348209857940674 8.139444351196289 5.289390563964844 0.20876871049404144 -0.19812743365764618 -0.03547420725226402 -0.5245896577835083 2.951753854751587 1.066854476928711 -0.10214105993509293 0.1603793352842331 0.2951260805130005 0.2622871994972229 10.7896089553833 0.609703004360199 0.03293962404131889 0.11544588208198547 -0.06449797749519348 -0.30533263087272644 3.060944080352783 -0.8052477836608887 -0.45168936252593994 0.3842463195323944 -0.1667504459619522 -0.20409290492534637 -50.064178466796875 33.51430892944336 -25.504444122314453 27.930776596069336 -42.13530349731445 -87.22928619384766 1.218326449394226 -35.60599899291992 5.435123920440674 0.01711231842637062 0.0936051532626152 0.3475838303565979 0.014004089869558811 -0.15455658733844757 -0.11507339030504227 -0.34156137704849243 -0.01286252774298191 0.06952304393053055 -8.224676132202148 5.202325820922852 -0.6351177096366882 -0.289005309343338 0.3208826780319214 0.012966661714017391 -3.2197091579437256 0.7054596543312073 0.017294492572546005 0.039958808571100235 -0.007698632311075926 -0.24853871762752533 -10.75201416015625 0.7428461313247681 0.14124232530593872 -0.3607670068740845 -0.22247333824634552 -0.3406749665737152 -2.1388254165649414 -1.1820870637893677 0.3516266942024231 -0.17007242143154144 -0.06550246477127075 0.3465806245803833 -30.176788330078125 -34.654563903808594 -25.63267707824707 -2.262916088104248 74.71308898925781 3.442277431488037 -6.822307109832764 -20.15593910217285 -16.767662048339844 0.069214828312397 -0.2574525475502014 -0.06130458042025566 81.19831085205078 -56.35756301879883 65.96465301513672 16.189149856567383 87.24642944335938 -16.854463577270508 -1.211381196975708 -4.942322254180908 -2.712714910507202
-0.8107265457510948 68.08000206947327 2.0168559160083532 96.89862060546875 74.05050659179688 167.61093139648438 -0.9948452711105347 29.083322525024414 15.799887657165527 -5.234002113342285 -10.833919525146484 3.0944128036499023 -0.048767879605293274 12.739002227783203 12.782285690307617 -0.6810632348060608 -21.158748626708984 21.291181564331055 -0.13255438208580017 -0.4518459737300873 0.12995749711990356 0.6426941752433777 0.8379848599433899 -0.4395255148410797 0.021141786128282547 0.5241804122924805 -0.2734013795852661 24.88955307006836 56.30747604370117 30.809864044189453 -27.51444435119629 -40.17530059814453 84.74774169921875 -0.22627492249011993 -0.8311101794242859 0.12392614781856537 -0.7294253706932068 -0.39888331294059753 0.16298136115074158 0.5231427550315857 0.6838149428367615 -0.09376846998929977 0.5924738049507141 0.06896266341209412 0.38644683361053467 7.873959541320801 5.249999046325684 -0.2066703736782074 0.05536695942282677 0.08039683103561401 0.012045071460306644 2.5863091945648193 1.2542377710342407 0.16617001593112946 0.8128960132598877 0.3967210054397583 -0.14470021426677704 11.0264253616333 0.4124385714530945 -0.35747766494750977 1.503980040550232 -0.475466251373291 0.06156782805919647 3.3093061447143555 -0.24899893999099731 -0.8558031916618347 0.42281609773635864 -0.3065679669380188 0.1231095939874649 -59.53597640991211 14.652778625488281 -6.946589469909668 27.288766860961914 -40.772491455078125 -88.2911148071289 1.5656468868255615 -34.47056579589844 4.969951629638672 0.25627049803733826 0.39267992973327637 -0.317900687456131 0.10371186584234238 -0.4657604396343231 -0.039619944989681244 -0.10682433843612671 0.18134655058383942 -0.6121495962142944 -7.447805881500244 5.30797815322876 -0.16282978653907776 0.1752317100763321 0.00845749955624342 -0.19357173144817352 -3.511702060699463 1.525159478187561 0.17086830735206604 -0.1327490210533142 -1.2029646635055542 -0.27523189783096313 -10.667770385742188 0.7256137728691101 0.03452175110578537 -0.19737125933170319 0.06390135735273361 0.42087864875793457 -1.3552812337875366 -0.8257775902748108 0.519335150718689 -0.07222263514995575 -0.28856149315834045 0.7065854072570801 -34.30963134765625 -37.76906204223633 -28.372819900512695 -1.5298553705215454 79.46622467041016 4.024689197540283 -8.515055656433105 -26.293176651000977 -18.79594612121582 0.26888173818588257 -0.08044485747814178 -0.05534343048930168 85.61490631103516 -58.81101989746094 65.94068908691406 3.105851411819458 76.85997009277344 -3.9207448959350586 -3.652890920639038 5.395575523376465 -9.606471061706543
